# xmcd
#
# Track frame offsets: 
#        182
#        10012
#        21172
#        33097
#        45132
#        60515
#        77125
#        88577
#        99450
#        111460
#        121370
#        132967
#        144762
#        156990
#        169390
#        179165
#        192405
#        202725
#        215235
#        226727
#
# Disc length: 3159 seconds
#
# Revision: 4
# Processed by: cddbd v1.5.1PL0 Copyright (c) Steve Scherf et al.
# Submitted via: ExactAudioCopy v0.95b2
#
DISCID=0a0c5514
DTITLE=John Lee Hooker - Boom Boom
DYEAR=1993
DGENRE=Blues
TTITLE0=Dimples
TTITLE1=Boom Boom
TTITLE2=Whiskey And Wimmen
TTITLE3=Frisco Blues
TTITLE4=Tupelo
TTITLE5=Process
TTITLE6=Good Rockin' Mama
TTITLE7=No Shoe
TTITLE8=I'm In The Mood
TTITLE9=Dusty Road
TTITLE10=Boogie Chillum
TTITLE11=Hard Hearted Woman
TTITLE12=Drug Store Woman
TTITLE13=Hobo Blues
TTITLE14=Onions
TTITLE15=Baby Lee
TTITLE16=I'm Leaving
TTITLE17=Trouble Blues
TTITLE18=Little Wheel
TTITLE19=Old Time Shimmy
EXTD=Selected Sound Carrier AG, Riedstr. 1, CH-6343 Rotkreuz\n1010.205
EXTD=3-2
EXTT0=
EXTT1=
EXTT2=
EXTT3=
EXTT4=
EXTT5=
EXTT6=
EXTT7=
EXTT8=
EXTT9=
EXTT10=
EXTT11=
EXTT12=
EXTT13=
EXTT14=
EXTT15=
EXTT16=
EXTT17=
EXTT18=
EXTT19=
PLAYORDER=
